<svg xmlns="http://www.w3.org/2000/svg" xmlns:xlink="http://www.w3.org/1999/xlink" width="500" zoomAndPan="magnify" viewBox="0 0 375 374.999991" height="500" preserveAspectRatio="xMidYMid meet" version="1.0"><defs><g/><clipPath id="77c6deefcc"><path d="M 90.390625 163.5 L 268.140625 163.5 L 268.140625 211.5 L 90.390625 211.5 Z M 90.390625 163.5 " clip-rule="nonzero"/></clipPath><clipPath id="a6d3a79bd3"><path d="M 95.8125 169.488281 L 187.5 169.488281 L 187.5 205.511719 L 95.8125 205.511719 Z M 95.8125 169.488281 " clip-rule="nonzero"/></clipPath></defs><g clip-path="url(#77c6deefcc)"><path stroke-linecap="butt" transform="matrix(0.75, 0, 0, 0.75, 90.390366, 163.500282)" fill="none" stroke-linejoin="miter" d="M 0.000345648 -0.000376085 L 237.187846 -0.000376085 L 237.187846 63.999624 L 0.000345648 63.999624 Z M 0.000345648 -0.000376085 " stroke="#000000" stroke-width="6" stroke-opacity="1" stroke-miterlimit="4"/></g><g clip-path="url(#a6d3a79bd3)"><path fill="#000000" d="M 95.8125 169.488281 L 187.5 169.488281 L 187.5 205.511719 L 95.8125 205.511719 Z M 95.8125 169.488281 " fill-opacity="1" fill-rule="nonzero"/></g><g fill="#ffffff" fill-opacity="1"><g transform="translate(102.075686, 191.777447)"><g><path d="M 4.703125 0 L 3.15625 0 L 0.84375 -2.3125 L 0.84375 -9.25 L 3.15625 -11.5625 L 4.703125 -11.5625 Z M 5.3125 -9.25 L 5.3125 -11.5625 L 9.40625 -11.5625 L 11.71875 -9.25 L 11.71875 -6.921875 L 7.875 -6.921875 L 7.875 -9.25 Z M 5.3125 0 L 5.3125 -2.3125 L 7.875 -2.3125 L 7.875 -4 L 11.71875 -4 L 11.71875 -2.3125 L 9.40625 0 Z M 5.3125 0 "/></g></g></g><g fill="#ffffff" fill-opacity="1"><g transform="translate(115.972768, 191.777447)"><g><path d="M 4.609375 -2.359375 L 6.0625 -2.359375 L 6.0625 0 L 3.09375 0 L 0.75 -2.3125 L 0.75 -9.25 L 3.09375 -11.5625 L 6.0625 -11.5625 L 6.0625 -9.21875 L 4.609375 -9.21875 Z M 8.140625 -9.21875 L 6.671875 -9.21875 L 6.671875 -11.5625 L 9.65625 -11.5625 L 11.984375 -9.25 L 11.984375 -2.3125 L 9.65625 0 L 6.671875 0 L 6.671875 -2.359375 L 8.140625 -2.359375 Z M 8.140625 -9.21875 "/></g></g></g><g fill="#ffffff" fill-opacity="1"><g transform="translate(130.070156, 191.777447)"><g><path d="M 5.484375 0 L 5.484375 -2.3125 L 8.34375 -2.3125 L 8.34375 -9.25 L 5.484375 -9.25 L 5.484375 -11.5625 L 9.875 -11.5625 L 12.203125 -9.25 L 12.203125 -2.3125 L 9.875 0 Z M 1.015625 -11.5625 L 4.875 -11.5625 L 4.875 0 L 1.015625 0 Z M 1.015625 -11.5625 "/></g></g></g><g fill="#ffffff" fill-opacity="1"><g transform="translate(144.367851, 191.777447)"><g><path d="M 0.84375 -2.46875 L 2 -2.46875 L 2 -9.109375 L 0.84375 -9.109375 L 0.84375 -11.5625 L 7.015625 -11.5625 L 7.015625 -9.109375 L 5.859375 -9.109375 L 5.859375 -2.46875 L 7.015625 -2.46875 L 7.015625 0 L 0.84375 0 Z M 0.84375 -2.46875 "/></g></g></g><g fill="#ffffff" fill-opacity="1"><g transform="translate(153.579515, 191.777447)"><g><path d="M 12.125 0 L 8.03125 0 L 1.015625 -11.5625 L 5.09375 -11.5625 Z M 1.015625 0 L 1.015625 -10.46875 L 4.375 -4.96875 L 4.375 0 Z M 12.125 -11.5625 L 12.125 -1.09375 L 8.765625 -6.625 L 8.765625 -11.5625 Z M 12.125 -11.5625 "/></g></g></g><g fill="#ffffff" fill-opacity="1"><g transform="translate(168.068804, 191.777447)"><g><path d="M 4.859375 -2.3125 L 8.15625 -2.3125 L 8.15625 0 L 3.3125 0 L 1 -2.3125 L 1 -9.25 L 3.3125 -11.5625 L 4.859375 -11.5625 Z M 6.890625 -6.40625 L 12.1875 -6.40625 L 12.1875 0 L 8.765625 0 L 8.765625 -4.125 L 6.890625 -4.125 Z M 5.46875 -9.25 L 5.46875 -11.5625 L 10.15625 -11.5625 L 12.1875 -9.25 L 12.1875 -8.09375 L 8.328125 -8.09375 L 8.328125 -9.25 Z M 5.46875 -9.25 "/></g></g></g><g fill="#000000" fill-opacity="1"><g transform="translate(190.691951, 194.366516)"><g><path d="M 6.761719 0.3125 C 10.382812 0.3125 12.523438 -1.394531 12.523438 -4.265625 C 12.523438 -6.679688 10.964844 -8.09375 7.425781 -8.882812 C 5.554688 -9.300781 4.867188 -9.757812 4.867188 -10.507812 C 4.867188 -11.214844 5.492188 -11.652344 6.46875 -11.652344 C 7.636719 -11.652344 8.300781 -11.046875 8.300781 -9.945312 L 12.253906 -9.945312 C 12.253906 -12.941406 9.964844 -14.875 6.386719 -14.875 C 2.953125 -14.875 0.832031 -13.167969 0.832031 -10.421875 C 0.832031 -7.96875 2.433594 -6.449219 5.722656 -5.824219 C 7.488281 -5.472656 8.34375 -4.929688 8.34375 -4.097656 C 8.34375 -3.371094 7.71875 -2.953125 6.699219 -2.953125 C 5.492188 -2.953125 4.785156 -3.597656 4.785156 -4.722656 L 0.726562 -4.722656 C 0.726562 -1.582031 2.976562 0.3125 6.761719 0.3125 Z M 6.761719 0.3125 "/></g></g></g><g fill="#000000" fill-opacity="1"><g transform="translate(203.985906, 194.366516)"><g><path d="M 1.539062 0 L 5.742188 0 L 5.742188 -14.5625 L 1.539062 -14.5625 Z M 1.539062 0 "/></g></g></g><g fill="#000000" fill-opacity="1"><g transform="translate(211.267418, 194.366516)"><g><path d="M 1.539062 0 L 5.699219 0 L 5.699219 -7.386719 L 8.507812 -3.453125 L 11.234375 -3.453125 L 14.023438 -7.363281 L 14.023438 0 L 18.183594 0 L 18.183594 -14.5625 L 14.773438 -14.5625 L 9.863281 -7.636719 L 4.972656 -14.5625 L 1.539062 -14.5625 Z M 1.539062 0 "/></g></g></g><g fill="#000000" fill-opacity="1"><g transform="translate(230.989905, 194.366516)"><g><path d="M 1.539062 0 L 9.007812 0 C 11.964844 0 14.023438 -1.664062 14.023438 -4.058594 C 14.023438 -5.597656 13.191406 -6.84375 11.816406 -7.449219 C 12.941406 -8.09375 13.585938 -9.257812 13.585938 -10.652344 C 13.585938 -13.046875 11.671875 -14.5625 8.632812 -14.5625 L 1.539062 -14.5625 Z M 5.660156 -3.121094 L 5.660156 -5.847656 L 8.199219 -5.847656 C 9.195312 -5.847656 9.757812 -5.347656 9.757812 -4.492188 C 9.757812 -3.621094 9.195312 -3.121094 8.199219 -3.121094 Z M 5.660156 -8.84375 L 5.660156 -11.464844 L 7.84375 -11.464844 C 8.820312 -11.464844 9.363281 -10.984375 9.363281 -10.152344 C 9.363281 -9.300781 8.820312 -8.84375 7.84375 -8.84375 Z M 5.660156 -8.84375 "/></g></g></g><g fill="#000000" fill-opacity="1"><g transform="translate(245.615335, 194.366516)"><g><path d="M 0.105469 0 L 4.554688 0 L 5.347656 -2.058594 L 10.320312 -2.058594 L 11.109375 0 L 15.582031 0 L 9.925781 -14.5625 L 5.761719 -14.5625 Z M 6.222656 -5.140625 L 7.84375 -9.652344 L 9.464844 -5.140625 Z M 6.222656 -5.140625 "/></g></g></g></svg>